<svg xmlns="http://www.w3.org/2000/svg" xmlns:xlink="http://www.w3.org/1999/xlink" width="500" zoomAndPan="magnify" viewBox="0 0 375 374.999991" height="500" preserveAspectRatio="xMidYMid meet" version="1.0"><defs><g/><clipPath id="16d79280e5"><path d="M 15.332031 0 L 359.582031 0 L 359.582031 65 L 15.332031 65 Z M 15.332031 0 " clip-rule="nonzero"/></clipPath><clipPath id="f2b84bf21f"><path d="M 15.332031 53 L 359.582031 53 L 359.582031 284.898438 L 15.332031 284.898438 Z M 15.332031 53 " clip-rule="nonzero"/></clipPath></defs><path fill="#adc1e8" d="M 354.203125 18.960938 L 354.203125 58.652344 L 20.710938 58.652344 L 20.710938 18.960938 C 20.710938 11.53125 26.730469 5.507812 34.15625 5.507812 L 340.753906 5.507812 C 348.179688 5.507812 354.203125 11.53125 354.203125 18.960938 " fill-opacity="1" fill-rule="nonzero"/><path fill="#eeeff9" d="M 20.710938 58.652344 L 20.710938 266.0625 C 20.710938 273.492188 26.730469 279.519531 34.15625 279.519531 L 340.753906 279.519531 C 348.179688 279.519531 354.203125 273.492188 354.203125 266.0625 L 354.203125 58.652344 L 20.710938 58.652344 " fill-opacity="1" fill-rule="nonzero"/><g clip-path="url(#16d79280e5)"><path fill="#5678c5" d="M 354.203125 64.03125 C 351.230469 64.03125 348.824219 61.625 348.824219 58.652344 L 348.824219 18.960938 C 348.824219 14.511719 345.203125 10.890625 340.753906 10.890625 L 34.15625 10.890625 C 29.707031 10.890625 26.089844 14.511719 26.089844 18.960938 L 26.089844 58.652344 C 26.089844 61.625 23.679688 64.03125 20.710938 64.03125 C 17.738281 64.03125 15.332031 61.625 15.332031 58.652344 L 15.332031 18.960938 C 15.332031 8.574219 23.773438 0.125 34.15625 0.125 L 340.753906 0.125 C 351.136719 0.125 359.582031 8.574219 359.582031 18.960938 L 359.582031 58.652344 C 359.582031 61.625 357.171875 64.03125 354.203125 64.03125 " fill-opacity="1" fill-rule="nonzero"/></g><g clip-path="url(#f2b84bf21f)"><path fill="#5678c5" d="M 26.089844 64.03125 L 26.089844 266.0625 C 26.089844 270.515625 29.707031 274.136719 34.15625 274.136719 L 340.753906 274.136719 C 345.203125 274.136719 348.824219 270.515625 348.824219 266.0625 L 348.824219 64.03125 Z M 340.753906 284.898438 L 34.15625 284.898438 C 23.773438 284.898438 15.332031 276.449219 15.332031 266.0625 L 15.332031 58.652344 C 15.332031 55.679688 17.738281 53.269531 20.710938 53.269531 L 354.203125 53.269531 C 357.171875 53.269531 359.582031 55.679688 359.582031 58.652344 L 359.582031 266.0625 C 359.582031 276.449219 351.136719 284.898438 340.753906 284.898438 " fill-opacity="1" fill-rule="nonzero"/></g><path fill="#5678c5" d="M 62.617188 39.929688 C 58.289062 39.929688 54.773438 36.414062 54.773438 32.078125 C 54.773438 27.742188 58.289062 24.234375 62.617188 24.234375 C 66.949219 24.234375 70.464844 27.742188 70.464844 32.078125 C 70.464844 36.414062 66.949219 39.929688 62.617188 39.929688 " fill-opacity="1" fill-rule="nonzero"/><path fill="#5678c5" d="M 93.546875 39.929688 C 89.214844 39.929688 85.703125 36.414062 85.703125 32.078125 C 85.703125 27.742188 89.214844 24.234375 93.546875 24.234375 C 97.878906 24.234375 101.394531 27.742188 101.394531 32.078125 C 101.394531 36.414062 97.878906 39.929688 93.546875 39.929688 " fill-opacity="1" fill-rule="nonzero"/><path fill="#5678c5" d="M 124.476562 39.929688 C 120.144531 39.929688 116.632812 36.414062 116.632812 32.078125 C 116.632812 27.742188 120.144531 24.234375 124.476562 24.234375 C 128.808594 24.234375 132.320312 27.742188 132.320312 32.078125 C 132.320312 36.414062 128.808594 39.929688 124.476562 39.929688 " fill-opacity="1" fill-rule="nonzero"/><path fill="#5678c5" d="M 76.941406 184.265625 L 109.828125 184.265625 L 109.828125 138.449219 Z M 115.207031 221.824219 C 112.238281 221.824219 109.828125 219.414062 109.828125 216.441406 L 109.828125 195.027344 L 66.457031 195.027344 C 64.441406 195.027344 62.59375 193.902344 61.671875 192.105469 C 60.75 190.304688 60.914062 188.148438 62.089844 186.507812 L 110.839844 118.585938 C 112.199219 116.691406 114.632812 115.890625 116.855469 116.601562 C 119.078125 117.320312 120.585938 119.390625 120.585938 121.726562 L 120.585938 184.265625 L 132.191406 184.265625 C 135.160156 184.265625 137.570312 186.675781 137.570312 189.648438 C 137.570312 192.621094 135.160156 195.027344 132.191406 195.027344 L 120.585938 195.027344 L 120.585938 216.441406 C 120.585938 219.414062 118.179688 221.824219 115.207031 221.824219 " fill-opacity="1" fill-rule="nonzero"/><path fill="#5678c5" d="M 253.203125 184.265625 L 286.085938 184.265625 L 286.085938 138.449219 Z M 291.464844 221.824219 C 288.496094 221.824219 286.085938 219.414062 286.085938 216.441406 L 286.085938 195.027344 L 242.71875 195.027344 C 240.699219 195.027344 238.855469 193.902344 237.933594 192.105469 C 237.011719 190.304688 237.171875 188.148438 238.351562 186.507812 L 287.097656 118.585938 C 288.460938 116.691406 290.890625 115.890625 293.113281 116.601562 C 295.339844 117.320312 296.84375 119.390625 296.84375 121.726562 L 296.84375 184.265625 L 308.453125 184.265625 C 311.421875 184.265625 313.832031 186.675781 313.832031 189.648438 C 313.832031 192.621094 311.421875 195.027344 308.453125 195.027344 L 296.84375 195.027344 L 296.84375 216.441406 C 296.84375 219.414062 294.4375 221.824219 291.464844 221.824219 " fill-opacity="1" fill-rule="nonzero"/><path fill="#5678c5" d="M 187.457031 127.105469 C 175.578125 127.105469 165.917969 136.773438 165.917969 148.65625 L 165.917969 189.511719 C 165.917969 201.394531 175.578125 211.0625 187.457031 211.0625 C 199.332031 211.0625 208.992188 201.394531 208.992188 189.511719 L 208.992188 148.65625 C 208.992188 136.773438 199.332031 127.105469 187.457031 127.105469 Z M 187.457031 221.824219 C 169.648438 221.824219 155.160156 207.328125 155.160156 189.511719 L 155.160156 148.65625 C 155.160156 130.839844 169.648438 116.34375 187.457031 116.34375 C 205.261719 116.34375 219.75 130.839844 219.75 148.65625 L 219.75 189.511719 C 219.75 207.328125 205.261719 221.824219 187.457031 221.824219 " fill-opacity="1" fill-rule="nonzero"/><g fill="#5678c5" fill-opacity="1"><g transform="translate(19.221714, 361.79054)"><g><path d="M 31.109375 0 C 28.566406 -4.53125 25.8125 -9.003906 22.84375 -13.421875 C 19.875 -17.835938 16.710938 -22.003906 13.359375 -25.921875 L 13.359375 0 L 4.5625 0 L 4.5625 -39.5625 L 11.8125 -39.5625 C 13.070312 -38.3125 14.460938 -36.769531 15.984375 -34.9375 C 17.503906 -33.113281 19.054688 -31.164062 20.640625 -29.09375 C 22.222656 -27.019531 23.789062 -24.867188 25.34375 -22.640625 C 26.90625 -20.410156 28.375 -18.269531 29.75 -16.21875 L 29.75 -39.5625 L 38.59375 -39.5625 L 38.59375 0 Z M 31.109375 0 "/></g></g></g><g fill="#5678c5" fill-opacity="1"><g transform="translate(62.377018, 361.79054)"><g><path d="M 12.046875 -19.8125 C 12.046875 -17.875 12.28125 -16.125 12.75 -14.5625 C 13.226562 -13 13.914062 -11.65625 14.8125 -10.53125 C 15.707031 -9.40625 16.800781 -8.535156 18.09375 -7.921875 C 19.394531 -7.316406 20.878906 -7.015625 22.546875 -7.015625 C 24.179688 -7.015625 25.65625 -7.316406 26.96875 -7.921875 C 28.289062 -8.535156 29.394531 -9.40625 30.28125 -10.53125 C 31.175781 -11.65625 31.863281 -13 32.34375 -14.5625 C 32.820312 -16.125 33.0625 -17.875 33.0625 -19.8125 C 33.0625 -21.75 32.820312 -23.507812 32.34375 -25.09375 C 31.863281 -26.675781 31.175781 -28.023438 30.28125 -29.140625 C 29.394531 -30.265625 28.289062 -31.128906 26.96875 -31.734375 C 25.65625 -32.347656 24.179688 -32.65625 22.546875 -32.65625 C 20.878906 -32.65625 19.394531 -32.34375 18.09375 -31.71875 C 16.800781 -31.09375 15.707031 -30.21875 14.8125 -29.09375 C 13.914062 -27.96875 13.226562 -26.613281 12.75 -25.03125 C 12.28125 -23.457031 12.046875 -21.71875 12.046875 -19.8125 Z M 42.25 -19.8125 C 42.25 -16.425781 41.742188 -13.445312 40.734375 -10.875 C 39.722656 -8.300781 38.34375 -6.148438 36.59375 -4.421875 C 34.84375 -2.691406 32.757812 -1.390625 30.34375 -0.515625 C 27.925781 0.359375 25.328125 0.796875 22.546875 0.796875 C 19.847656 0.796875 17.296875 0.359375 14.890625 -0.515625 C 12.492188 -1.390625 10.398438 -2.691406 8.609375 -4.421875 C 6.828125 -6.148438 5.421875 -8.300781 4.390625 -10.875 C 3.367188 -13.445312 2.859375 -16.425781 2.859375 -19.8125 C 2.859375 -23.195312 3.390625 -26.171875 4.453125 -28.734375 C 5.515625 -31.304688 6.945312 -33.46875 8.75 -35.21875 C 10.5625 -36.976562 12.65625 -38.296875 15.03125 -39.171875 C 17.414062 -40.046875 19.921875 -40.484375 22.546875 -40.484375 C 25.253906 -40.484375 27.804688 -40.046875 30.203125 -39.171875 C 32.597656 -38.296875 34.691406 -36.976562 36.484375 -35.21875 C 38.273438 -33.46875 39.679688 -31.304688 40.703125 -28.734375 C 41.734375 -26.171875 42.25 -23.195312 42.25 -19.8125 Z M 42.25 -19.8125 "/></g></g></g><g fill="#5678c5" fill-opacity="1"><g transform="translate(107.473166, 361.79054)"><g><path d="M 33.90625 -39.5625 L 33.90625 -31.96875 L 21.984375 -31.96875 L 21.984375 0 L 13.078125 0 L 13.078125 -31.96875 L 1.140625 -31.96875 L 1.140625 -39.5625 Z M 33.90625 -39.5625 "/></g></g></g><g fill="#5678c5" fill-opacity="1"><g transform="translate(142.522577, 361.79054)"><g/></g></g><g fill="#5678c5" fill-opacity="1"><g transform="translate(156.222675, 361.79054)"><g><path d="M 4.5625 0 L 4.5625 -39.5625 L 31.0625 -39.5625 L 31.0625 -32.09375 L 13.46875 -32.09375 L 13.46875 -23.8125 L 29.125 -23.8125 L 29.125 -16.328125 L 13.46875 -16.328125 L 13.46875 0 Z M 4.5625 0 "/></g></g></g><g fill="#5678c5" fill-opacity="1"><g transform="translate(188.988744, 361.79054)"><g><path d="M 12.046875 -19.8125 C 12.046875 -17.875 12.28125 -16.125 12.75 -14.5625 C 13.226562 -13 13.914062 -11.65625 14.8125 -10.53125 C 15.707031 -9.40625 16.800781 -8.535156 18.09375 -7.921875 C 19.394531 -7.316406 20.878906 -7.015625 22.546875 -7.015625 C 24.179688 -7.015625 25.65625 -7.316406 26.96875 -7.921875 C 28.289062 -8.535156 29.394531 -9.40625 30.28125 -10.53125 C 31.175781 -11.65625 31.863281 -13 32.34375 -14.5625 C 32.820312 -16.125 33.0625 -17.875 33.0625 -19.8125 C 33.0625 -21.75 32.820312 -23.507812 32.34375 -25.09375 C 31.863281 -26.675781 31.175781 -28.023438 30.28125 -29.140625 C 29.394531 -30.265625 28.289062 -31.128906 26.96875 -31.734375 C 25.65625 -32.347656 24.179688 -32.65625 22.546875 -32.65625 C 20.878906 -32.65625 19.394531 -32.34375 18.09375 -31.71875 C 16.800781 -31.09375 15.707031 -30.21875 14.8125 -29.09375 C 13.914062 -27.96875 13.226562 -26.613281 12.75 -25.03125 C 12.28125 -23.457031 12.046875 -21.71875 12.046875 -19.8125 Z M 42.25 -19.8125 C 42.25 -16.425781 41.742188 -13.445312 40.734375 -10.875 C 39.722656 -8.300781 38.34375 -6.148438 36.59375 -4.421875 C 34.84375 -2.691406 32.757812 -1.390625 30.34375 -0.515625 C 27.925781 0.359375 25.328125 0.796875 22.546875 0.796875 C 19.847656 0.796875 17.296875 0.359375 14.890625 -0.515625 C 12.492188 -1.390625 10.398438 -2.691406 8.609375 -4.421875 C 6.828125 -6.148438 5.421875 -8.300781 4.390625 -10.875 C 3.367188 -13.445312 2.859375 -16.425781 2.859375 -19.8125 C 2.859375 -23.195312 3.390625 -26.171875 4.453125 -28.734375 C 5.515625 -31.304688 6.945312 -33.46875 8.75 -35.21875 C 10.5625 -36.976562 12.65625 -38.296875 15.03125 -39.171875 C 17.414062 -40.046875 19.921875 -40.484375 22.546875 -40.484375 C 25.253906 -40.484375 27.804688 -40.046875 30.203125 -39.171875 C 32.597656 -38.296875 34.691406 -36.976562 36.484375 -35.21875 C 38.273438 -33.46875 39.679688 -31.304688 40.703125 -28.734375 C 41.734375 -26.171875 42.25 -23.195312 42.25 -19.8125 Z M 42.25 -19.8125 "/></g></g></g><g fill="#5678c5" fill-opacity="1"><g transform="translate(234.084892, 361.79054)"><g><path d="M 20.046875 0.796875 C 17.265625 0.796875 14.863281 0.40625 12.84375 -0.375 C 10.820312 -1.15625 9.15625 -2.238281 7.84375 -3.625 C 6.53125 -5.007812 5.5625 -6.660156 4.9375 -8.578125 C 4.3125 -10.503906 4 -12.628906 4 -14.953125 L 4 -39.5625 L 12.90625 -39.5625 L 12.90625 -15.703125 C 12.90625 -14.097656 13.082031 -12.734375 13.4375 -11.609375 C 13.800781 -10.492188 14.296875 -9.582031 14.921875 -8.875 C 15.554688 -8.175781 16.320312 -7.671875 17.21875 -7.359375 C 18.113281 -7.054688 19.09375 -6.90625 20.15625 -6.90625 C 22.320312 -6.90625 24.082031 -7.570312 25.4375 -8.90625 C 26.789062 -10.238281 27.46875 -12.503906 27.46875 -15.703125 L 27.46875 -39.5625 L 36.375 -39.5625 L 36.375 -14.953125 C 36.375 -12.628906 36.046875 -10.5 35.390625 -8.5625 C 34.742188 -6.625 33.753906 -4.957031 32.421875 -3.5625 C 31.097656 -2.175781 29.40625 -1.101562 27.34375 -0.34375 C 25.289062 0.414062 22.859375 0.796875 20.046875 0.796875 Z M 20.046875 0.796875 "/></g></g></g><g fill="#5678c5" fill-opacity="1"><g transform="translate(274.443078, 361.79054)"><g><path d="M 31.109375 0 C 28.566406 -4.53125 25.8125 -9.003906 22.84375 -13.421875 C 19.875 -17.835938 16.710938 -22.003906 13.359375 -25.921875 L 13.359375 0 L 4.5625 0 L 4.5625 -39.5625 L 11.8125 -39.5625 C 13.070312 -38.3125 14.460938 -36.769531 15.984375 -34.9375 C 17.503906 -33.113281 19.054688 -31.164062 20.640625 -29.09375 C 22.222656 -27.019531 23.789062 -24.867188 25.34375 -22.640625 C 26.90625 -20.410156 28.375 -18.269531 29.75 -16.21875 L 29.75 -39.5625 L 38.59375 -39.5625 L 38.59375 0 Z M 31.109375 0 "/></g></g></g><g fill="#5678c5" fill-opacity="1"><g transform="translate(317.598397, 361.79054)"><g><path d="M 13.46875 -7.25 C 13.894531 -7.207031 14.382812 -7.175781 14.9375 -7.15625 C 15.488281 -7.144531 16.144531 -7.140625 16.90625 -7.140625 C 21.351562 -7.140625 24.648438 -8.257812 26.796875 -10.5 C 28.953125 -12.75 30.03125 -15.851562 30.03125 -19.8125 C 30.03125 -23.957031 29 -27.09375 26.9375 -29.21875 C 24.882812 -31.351562 21.632812 -32.421875 17.1875 -32.421875 C 16.570312 -32.421875 15.941406 -32.410156 15.296875 -32.390625 C 14.648438 -32.378906 14.039062 -32.335938 13.46875 -32.265625 Z M 39.21875 -19.8125 C 39.21875 -16.382812 38.6875 -13.394531 37.625 -10.84375 C 36.5625 -8.289062 35.046875 -6.175781 33.078125 -4.5 C 31.117188 -2.832031 28.734375 -1.578125 25.921875 -0.734375 C 23.109375 0.0976562 19.945312 0.515625 16.4375 0.515625 C 14.84375 0.515625 12.976562 0.445312 10.84375 0.3125 C 8.71875 0.175781 6.625 -0.0976562 4.5625 -0.515625 L 4.5625 -39.046875 C 6.625 -39.429688 8.765625 -39.6875 10.984375 -39.8125 C 13.210938 -39.945312 15.128906 -40.015625 16.734375 -40.015625 C 20.117188 -40.015625 23.191406 -39.632812 25.953125 -38.875 C 28.710938 -38.113281 31.082031 -36.914062 33.0625 -35.28125 C 35.039062 -33.644531 36.5625 -31.550781 37.625 -29 C 38.6875 -26.445312 39.21875 -23.382812 39.21875 -19.8125 Z M 39.21875 -19.8125 "/></g></g></g></svg>